ply
format ascii 1.0
element vertex 520
property float x
property float y
property float z
property uchar red
property uchar green
property uchar blue
element face 108
property list uchar int vertex_indices
end_header
0.13564643378423374 0.5443810840159986 1.0240502859805445 255 125 0
0.5443810840159986 1.0240502859805445 1.2383260888765095 255 125 0
1.0240502859805445 1.2383260888765095 1.27238971763011 255 125 0
1.2383260888765095 1.27238971763011 1.2598301260565574 255 125 0
1.27238971763011 1.2598301260565574 1.1120784281365954 255 125 0
1.2598301260565574 1.1120784281365954 1.1242565965353508 255 125 0
1.1120784281365954 1.1242565965353508 0.6958444630821871 255 125 0
1.1242565965353508 0.6958444630821871 0.1720712155731822 255 125 0
0.6958444630821871 0.1720712155731822 -0.3575766037060666 255 125 0
0.1720712155731822 -0.3575766037060666 -0.6206023433700157 255 125 0
-0.3575766037060666 -0.6206023433700157 -0.8948232510083334 255 125 0
-0.6206023433700157 -0.8948232510083334 -1.214580263916595 255 125 0
-0.8948232510083334 -1.214580263916595 -1.3910010432854385 255 125 0
-1.214580263916595 -1.3910010432854385 -1.4756962166595866 255 125 0
-1.3910010432854385 -1.4756962166595866 -1.3987825427157583 255 125 0
-1.4756962166595866 -1.3987825427157583 -0.8610673588887723 255 125 0
-1.3987825427157583 -0.8610673588887723 -0.7655645677525134 255 125 0
-0.8610673588887723 -0.7655645677525134 -1.2527943868996276 255 125 0
-0.7655645677525134 -1.2527943868996276 -0.8279013810906102 255 125 0
-1.2527943868996276 -0.8279013810906102 -1.1426468907185432 255 125 0
-0.8279013810906102 -1.1426468907185432 -1.4646835865724075 255 125 0
-1.1426468907185432 -1.4646835865724075 -1.1084806144814587 255 125 0
-1.4646835865724075 -1.1084806144814587 -0.5792431715681812 255 125 0
-1.1084806144814587 -0.5792431715681812 -1.0192267966166129 255 125 0
-0.5792431715681812 -1.0192267966166129 -0.06679330828802292 255 125 0
-1.0192267966166129 -0.06679330828802292 -0.5245268103781326 255 125 0
-0.06679330828802292 -0.5245268103781326 0.062369190320216324 255 125 0
-0.5245268103781326 0.062369190320216324 0.4734767022841771 255 125 0
0.062369190320216324 0.4734767022841771 -0.20394507159545344 255 125 0
0.4734767022841771 -0.20394507159545344 -0.3370909868499333 255 125 0
-0.20394507159545344 -0.3370909868499333 -1.007557708625579 255 125 0
-0.3370909868499333 -1.007557708625579 -0.4867159373475817 255 125 0
-1.007557708625579 -0.4867159373475817 0.22052883476764684 255 125 0
-0.4867159373475817 0.22052883476764684 0.2717392393215061 255 125 0
0.22052883476764684 0.2717392393215061 0.8959352251790474 255 125 0
0.2717392393215061 0.8959352251790474 1.1159234468072672 255 125 0
0.8959352251790474 1.1159234468072672 1.3960445013223393 255 125 0
1.1159234468072672 1.3960445013223393 1.4359840783347333 255 125 0
1.3960445013223393 1.4359840783347333 1.4639142342882672 255 125 0
1.4359840783347333 1.4639142342882672 1.7170561388145302 255 125 0
1.4639142342882672 1.7170561388145302 1.598274457052827 255 125 0
1.7170561388145302 1.598274457052827 1.403281415907006 255 125 0
1.598274457052827 1.403281415907006 1.2505909750069846 255 125 0
1.403281415907006 1.2505909750069846 0.892308737004083 255 125 0
1.2505909750069846 0.892308737004083 0.3063223045212491 255 125 0
0.892308737004083 0.3063223045212491 -0.31734189334469104 255 125 0
0.3063223045212491 -0.31734189334469104 -0.5627597332784722 255 125 0
-0.31734189334469104 -0.5627597332784722 -0.761744445454015 255 125 0
-0.5627597332784722 -0.761744445454015 -1.1232115387289248 255 125 0
-0.761744445454015 -1.1232115387289248 -0.8210749033670546 255 125 0
-1.1232115387289248 -0.8210749033670546 -0.7709807343613515 255 125 0
-0.8210749033670546 -0.7709807343613515 -1.263739792414749 255 125 0
-0.7709807343613515 -1.263739792414749 -1.490519119998739 255 125 0
-1.263739792414749 -1.490519119998739 -1.3377451250470478 255 125 0
-1.490519119998739 -1.3377451250470478 -0.7061099942826304 255 125 0
-1.3377451250470478 -0.7061099942826304 -0.21701960118004465 255 125 0
-0.7061099942826304 -0.21701960118004465 -1.0261031464941721 255 125 0
-0.21701960118004465 -1.0261031464941721 -1.344209150875445 255 125 0
-1.0261031464941721 -1.344209150875445 -1.5050589488546946 255 125 0
-1.344209150875445 -1.5050589488546946 -1.3373192860801222 255 125 0
-1.5050589488546946 -1.3373192860801222 -1.092432567872936 255 125 0
-1.3373192860801222 -1.092432567872936 0.5042698357702519 255 125 0
-1.092432567872936 0.5042698357702519 0.6176450083373427 255 125 0
0.5042698357702519 0.6176450083373427 0.08731824526444425 255 125 0
0.6176450083373427 0.08731824526444425 -0.12878761490899884 255 125 0
0.08731824526444425 -0.12878761490899884 -0.8320513877824489 255 125 0
-0.12878761490899884 -0.8320513877824489 -1.1042529738761468 255 125 0
-0.8320513877824489 -1.1042529738761468 -0.6593070525964525 255 125 0
-1.1042529738761468 -0.6593070525964525 -0.599293916126456 255 125 0
-0.6593070525964525 -0.599293916126456 0.6351500816512685 255 125 0
-0.599293916126456 0.6351500816512685 0.13391284876859136 255 125 0
0.6351500816512685 0.13391284876859136 0.8682403822778384 255 125 0
0.13391284876859136 0.8682403822778384 1.2178988257623942 255 125 0
0.8682403822778384 1.2178988257623942 1.3589958174443104 255 125 0
1.2178988257623942 1.3589958174443104 1.5152993110083912 255 125 0
1.3589958174443104 1.5152993110083912 1.4508623286367737 255 125 0
1.5152993110083912 1.4508623286367737 1.4064426072141694 255 125 0
1.4508623286367737 1.4064426072141694 1.302341511637195 255 125 0
1.4064426072141694 1.302341511637195 1.1666768752206296 255 125 0
1.302341511637195 1.1666768752206296 0.9448115245490836 255 125 0
1.1666768752206296 0.9448115245490836 0.7956179434867624 255 125 0
0.9448115245490836 0.7956179434867624 -0.10629473359305536 255 125 0
0.7956179434867624 -0.10629473359305536 -0.5475222962396589 255 125 0
-0.10629473359305536 -0.5475222962396589 -0.9261235746008196 255 125 0
-0.5475222962396589 -0.9261235746008196 -0.7456338078942891 255 125 0
-0.9261235746008196 -0.7456338078942891 -1.014484289337927 255 125 0
-0.7456338078942891 -1.014484289337927 -1.1286483134938934 255 125 0
-1.014484289337927 -1.1286483134938934 -1.294936889295807 255 125 0
-1.1286483134938934 -1.294936889295807 -1.378529340042415 255 125 0
-1.294936889295807 -1.378529340042415 -1.1496577504428998 255 125 0
-1.378529340042415 -1.1496577504428998 -0.6595808601972143 255 125 0
-1.1496577504428998 -0.6595808601972143 -0.972963488642998 255 125 0
-0.6595808601972143 -0.972963488642998 -1.3117380643494911 255 125 0
-0.972963488642998 -1.3117380643494911 -1.2857557405624234 255 125 0
-1.3117380643494911 -1.2857557405624234 -0.6325725983582026 255 125 0
-1.2857557405624234 -0.6325725983582026 -0.19705923603505146 255 125 0
-0.6325725983582026 -0.19705923603505146 -0.025854265952384742 255 125 0
-0.19705923603505146 -0.025854265952384742 -1.124225827982843 255 125 0
-0.025854265952384742 -1.124225827982843 -0.8374931498582346 255 125 0
-1.124225827982843 -0.8374931498582346 0.24868096039870044 255 125 0
-0.8374931498582346 0.24868096039870044 1.1038491651871984 255 125 0
0.24868096039870044 1.1038491651871984 0.6020320312673869 255 125 0
1.1038491651871984 0.6020320312673869 0.16781316840123506 255 125 0
0.6020320312673869 0.16781316840123506 -0.18923934659440253 255 125 0
0.16781316840123506 -0.18923934659440253 -0.13347630460004195 255 125 0
-0.18923934659440253 -0.13347630460004195 0.3242894149241001 255 125 0
-0.13347630460004195 0.3242894149241001 1.0515415286544643 255 125 0
0.3242894149241001 1.0515415286544643 1.153306536749337 255 125 0
1.0515415286544643 1.153306536749337 1.5011672675015455 255 125 0
1.153306536749337 1.5011672675015455 1.2524016060950318 255 125 0
1.5011672675015455 1.2524016060950318 1.4463213400280563 255 125 0
1.2524016060950318 1.4463213400280563 1.5867946260347316 255 125 0
1.4463213400280563 1.5867946260347316 1.4147006495993515 255 125 0
1.5867946260347316 1.4147006495993515 1.5284642198041876 255 125 0
1.4147006495993515 1.5284642198041876 1.1728726095863151 255 125 0
1.5284642198041876 1.1728726095863151 0.9150352446995736 255 125 0
1.1728726095863151 0.9150352446995736 0.5909750413275288 255 125 0
0.9150352446995736 0.5909750413275288 -0.08299851783110612 255 125 0
0.5909750413275288 -0.08299851783110612 -0.4933713873400646 255 125 0
-0.08299851783110612 -0.4933713873400646 -0.6557384955920689 255 125 0
-0.4933713873400646 -0.6557384955920689 -0.5125607579676029 255 125 0
-0.6557384955920689 -0.5125607579676029 -1.0874148966780512 255 125 0
-0.5125607579676029 -1.0874148966780512 -1.2762135178812155 255 125 0
-1.0874148966780512 -1.2762135178812155 -1.4996508864637308 255 125 0
-1.2762135178812155 -1.4996508864637308 -1.5273518511064397 255 125 0
-1.4996508864637308 -1.5273518511064397 -1.3704070627126106 255 125 0
-1.5273518511064397 -1.3704070627126106 -1.3401226188330964 255 125 0
-1.3704070627126106 -1.3401226188330964 -1.177769217399829 255 125 0
-1.3401226188330964 -1.177769217399829 -1.360256432909746 255 125 0
-1.177769217399829 -1.360256432909746 -0.4561996615118802 255 125 0
-1.360256432909746 -0.4561996615118802 -1.0526841013279506 255 125 0
-0.4561996615118802 -1.0526841013279506 -0.7382670337987636 255 125 0
-1.0526841013279506 -0.7382670337987636 0.09512874084713943 255 125 0
-0.7382670337987636 0.09512874084713943 0.6913601461231533 255 125 0
0.09512874084713943 0.6913601461231533 0.0051000831684907535 255 125 0
0.6913601461231533 0.0051000831684907535 0.19176835634186226 255 125 0
0.0051000831684907535 0.19176835634186226 0.3247908483581206 255 125 0
0.19176835634186226 0.3247908483581206 -0.2605550516451293 255 125 0
0.3247908483581206 -0.2605550516451293 -0.03220871601302597 255 125 0
-0.2605550516451293 -0.03220871601302597 -0.2478285664713757 255 125 0
-0.03220871601302597 -0.2478285664713757 0.334498447020805 255 125 0
-0.2478285664713757 0.334498447020805 0.5345243770320773 255 125 0
0.334498447020805 0.5345243770320773 0.8009961817949915 255 125 0
0.5345243770320773 0.8009961817949915 0.9655831461194934 255 125 0
0.8009961817949915 0.9655831461194934 1.4819964864754045 255 125 0
0.9655831461194934 1.4819964864754045 1.5168221186611774 255 125 0
1.4819964864754045 1.5168221186611774 1.6325770994133948 255 125 0
1.5168221186611774 1.6325770994133948 1.6489652134902766 255 125 0
1.6325770994133948 1.6489652134902766 1.6095245689675306 255 125 0
1.6489652134902766 1.6095245689675306 1.5367253989259295 255 125 0
1.6095245689675306 1.5367253989259295 1.3349262718978738 255 125 0
1.5367253989259295 1.3349262718978738 0.8444142805630411 255 125 0
1.3349262718978738 0.8444142805630411 0.3861628124697804 255 125 0
0.8444142805630411 0.3861628124697804 0.3750472712203397 255 125 0
0.3861628124697804 0.3750472712203397 0.18161918749976327 255 125 0
0.3750472712203397 0.18161918749976327 -0.3997098265558799 255 125 0
0.18161918749976327 -0.3997098265558799 -0.5581374626679765 255 125 0
-0.3997098265558799 -0.5581374626679765 -0.3491038735340246 255 125 0
-0.5581374626679765 -0.3491038735340246 -0.71655611587999 255 125 0
-0.3491038735340246 -0.71655611587999 -1.101846105919668 255 125 0
-0.71655611587999 -1.101846105919668 -1.186199134742589 255 125 0
-1.101846105919668 -1.186199134742589 -1.2891065858227773 255 125 0
-1.186199134742589 -1.2891065858227773 -1.1349322225912335 255 125 0
-1.2891065858227773 -1.1349322225912335 -0.1937175314016052 255 125 0
-1.1349322225912335 -0.1937175314016052 -0.6494134602567331 255 125 0
-0.1937175314016052 -0.6494134602567331 -0.7587426796989378 255 125 0
-0.6494134602567331 -0.7587426796989378 -1.1209174750434605 255 125 0
-0.7587426796989378 -1.1209174750434605 -1.3383943091160315 255 125 0
-1.1209174750434605 -1.3383943091160315 0.005350540933705452 255 125 0
-1.3383943091160315 0.005350540933705452 -0.6571162491103485 255 125 0
0.005350540933705452 -0.6571162491103485 0.3745399775617214 255 125 0
-0.6571162491103485 0.3745399775617214 -0.30918120099625035 255 125 0
0.3745399775617214 -0.30918120099625035 -0.7192612448779532 255 125 0
-0.30918120099625035 -0.7192612448779532 -0.06687868432540398 255 125 0
-0.7192612448779532 -0.06687868432540398 0.22283959054914548 255 125 0
-0.06687868432540398 0.22283959054914548 0.4350884097592069 255 125 0
0.22283959054914548 0.4350884097592069 0.8799744113810436 255 125 0
0.4350884097592069 0.8799744113810436 1.1109935103317283 255 125 0
0.8799744113810436 1.1109935103317283 1.2591309995747213 255 125 0
1.1109935103317283 1.2591309995747213 1.1106842845707976 255 125 0
1.2591309995747213 1.1106842845707976 1.4095900461543278 255 125 0
1.1106842845707976 1.4095900461543278 1.7598045817224286 255 125 0
1.4095900461543278 1.7598045817224286 1.6479343637221222 255 125 0
1.7598045817224286 1.6479343637221222 1.7620096713116378 255 125 0
1.6479343637221222 1.7620096713116378 1.836256861445505 255 125 0
1.7620096713116378 1.836256861445505 1.7806607916346318 255 125 0
1.836256861445505 1.7806607916346318 1.4539286220976566 255 125 0
1.7806607916346318 1.4539286220976566 1.2949721976313997 255 125 0
1.4539286220976566 1.2949721976313997 0.5670195970499291 255 125 0
1.2949721976313997 0.5670195970499291 0.01862598121598789 255 125 0
0.5670195970499291 0.01862598121598789 -0.4359300470019846 255 125 0
0.01862598121598789 -0.4359300470019846 -0.5689018689259266 255 125 0
-0.4359300470019846 -0.5689018689259266 -0.9248136735186852 255 125 0
-0.5689018689259266 -0.9248136735186852 -1.1909569330274066 255 125 0
-0.9248136735186852 -1.1909569330274066 -1.3974079045519008 255 125 0
-1.1909569330274066 -1.3974079045519008 -1.5207799641971782 255 125 0
-1.3974079045519008 -1.5207799641971782 -1.4508061323902877 255 125 0
-1.5207799641971782 -1.4508061323902877 -1.3610722961474202 255 125 0
-1.4508061323902877 -1.3610722961474202 -1.1846685804574084 255 125 0
-1.3610722961474202 -1.1846685804574084 -1.2019199250925678 255 125 0
-1.1846685804574084 -1.2019199250925678 -1.2093796674150314 255 125 0
-1.2019199250925678 -1.2093796674150314 -1.3502448168358958 255 125 0
-1.2093796674150314 -1.3502448168358958 -1.44432257881953 255 125 0
-1.3502448168358958 -1.44432257881953 -1.4943998417180202 255 125 0
-1.44432257881953 -1.4943998417180202 -1.5688018450496073 255 125 0
-1.4943998417180202 -1.5688018450496073 -0.7453245734920719 255 125 0
-1.5688018450496073 -0.7453245734920719 -0.19659098235824848 255 125 0
-0.7453245734920719 -0.19659098235824848 -0.7365900603114577 255 125 0
-0.19659098235824848 -0.7365900603114577 0.3911177267325744 255 125 0
-0.7365900603114577 0.3911177267325744 0.11870259559878145 255 125 0
0.3911177267325744 0.11870259559878145 -0.3858534039003 255 125 0
0.11870259559878145 -0.3858534039003 0.7733280817396867 255 125 0
-0.3858534039003 0.7733280817396867 0.3706893427658295 255 125 0
0.7733280817396867 0.3706893427658295 0.31679039389801483 255 125 0
0.3706893427658295 0.31679039389801483 0.9338395492203924 255 125 0
0.31679039389801483 0.9338395492203924 1.2284349807340027 255 125 0
0.9338395492203924 1.2284349807340027 1.4629913401969632 255 125 0
1.2284349807340027 1.4629913401969632 1.6370144927483248 255 125 0
1.4629913401969632 1.6370144927483248 1.7286736833213965 255 125 0
1.6370144927483248 1.7286736833213965 1.621211125558739 255 125 0
1.7286736833213965 1.621211125558739 1.6335496001088754 255 125 0
1.621211125558739 1.6335496001088754 1.5311000975114062 255 125 0
1.6335496001088754 1.5311000975114062 1.4252746770510576 255 125 0
1.5311000975114062 1.4252746770510576 0.9496322078704128 255 125 0
1.4252746770510576 0.9496322078704128 0.5237092202779411 255 125 0
0.9496322078704128 0.5237092202779411 0.4270138674816085 255 125 0
0.5237092202779411 0.4270138674816085 1.1483368221003365 255 125 0
0.4270138674816085 1.1483368221003365 0.31929963995803057 255 125 0
1.1483368221003365 0.31929963995803057 -0.3438977114931344 255 125 0
0.31929963995803057 -0.3438977114931344 -0.7092133465268653 255 125 0
-0.3438977114931344 -0.7092133465268653 -0.9840696430579036 255 125 0
-0.7092133465268653 -0.9840696430579036 -1.1968313410133908 255 125 0
-0.9840696430579036 -1.1968313410133908 -1.240676969380876 255 125 0
-1.1968313410133908 -1.240676969380876 -1.4361561563801282 255 125 0
-1.240676969380876 -1.4361561563801282 -0.5588098570584595 255 125 0
-1.4361561563801282 -0.5588098570584595 -0.6633647637338691 255 125 0
-0.5588098570584595 -0.6633647637338691 -0.8736026092051433 255 125 0
-0.6633647637338691 -0.8736026092051433 -1.0475158420898991 255 125 0
-0.8736026092051433 -1.0475158420898991 -0.9374960631717876 255 125 0
-1.0475158420898991 -0.9374960631717876 -1.3126825393603632 255 125 0
-0.9374960631717876 -1.3126825393603632 -1.0963585747067797 255 125 0
-1.3126825393603632 -1.0963585747067797 0.16166154593788915 255 125 0
-1.0963585747067797 0.16166154593788915 0.058208417180992074 255 125 0
0.16166154593788915 0.058208417180992074 -0.6797492293921951 255 125 0
0.058208417180992074 -0.6797492293921951 -0.8888540719996787 255 125 0
-0.6797492293921951 -0.8888540719996787 -0.34709020709483684 255 125 0
-0.8888540719996787 -0.34709020709483684 -0.4736158732541899 255 125 0
-0.34709020709483684 -0.4736158732541899 -0.8564441237415351 255 125 0
-0.4736158732541899 -0.8564441237415351 -0.3414719107118421 255 125 0
-0.8564441237415351 -0.3414719107118421 0.15408982920069025 255 125 0
-0.3414719107118421 0.15408982920069025 0.4089583435483107 255 125 0
0.15408982920069025 0.4089583435483107 0.8527760487632154 255 125 0
0.4089583435483107 0.8527760487632154 1.1568454492680282 255 125 0
0.8527760487632154 1.1568454492680282 1.113204761880564 255 125 0
1.1568454492680282 1.113204761880564 1.3064641449653012 255 125 0
1.113204761880564 1.3064641449653012 1.3949744915914195 255 125 0
1.3064641449653012 1.3949744915914195 1.4658464289784268 255 125 0
1.3949744915914195 1.4658464289784268 1.165651443051305 255 125 0
1.4658464289784268 1.165651443051305 0.7552906492156006 255 125 0
1.165651443051305 0.7552906492156006 0.4295127717157896 255 125 0
0.7552906492156006 0.4295127717157896 1.0169595532463551 255 125 0
0.4295127717157896 1.0169595532463551 0.2244416204835988 255 125 0
1.0169595532463551 0.2244416204835988 -0.3411394139636741 255 125 0
0.2244416204835988 -0.3411394139636741 -0.7792186170885129 255 125 0
-0.3411394139636741 -0.7792186170885129 -1.018494500637104 255 125 0
-0.7792186170885129 -1.018494500637104 -0.9143009950608476 255 125 0
-1.018494500637104 -0.9143009950608476 -0.34185891228992044 255 125 0
-0.9143009950608476 -0.34185891228992044 -0.8053235346474471 255 125 0
-0.34185891228992044 -0.8053235346474471 -0.8094639559329612 255 125 0
-0.8053235346474471 -0.8094639559329612 -1.0939121974510906 255 125 0
-0.8094639559329612 -1.0939121974510906 -0.925385948342669 255 125 0
-1.0939121974510906 -0.925385948342669 -0.9485057128746646 255 125 0
-0.925385948342669 -0.9485057128746646 0.03308695394268441 255 125 0
-0.9485057128746646 0.03308695394268441 -0.6233754224385016 255 125 0
0.03308695394268441 -0.6233754224385016 0.12397058531918324 255 125 0
-0.6233754224385016 0.12397058531918324 -0.6403522237561391 255 125 0
0.12397058531918324 -0.6403522237561391 -0.4351685988867756 255 125 0
-0.6403522237561391 -0.4351685988867756 -0.17594004114374326 255 125 0
-0.4351685988867756 -0.17594004114374326 0.2348238253784614 255 125 0
-0.17594004114374326 0.2348238253784614 0.5243193680360628 255 125 0
0.2348238253784614 0.5243193680360628 0.7396867310875732 255 125 0
0.5243193680360628 0.7396867310875732 0.8744309819356847 255 125 0
0.7396867310875732 0.8744309819356847 0.5388462246908183 255 125 0
0.8744309819356847 0.5388462246908183 0.1931103825323313 255 125 0
0.5388462246908183 0.1931103825323313 0.5231455171062163 255 125 0
0.1931103825323313 0.5231455171062163 0.8619058804212033 255 125 0
0.5231455171062163 0.8619058804212033 0.7792897176857727 255 125 0
0.8619058804212033 0.7792897176857727 1.0584827042345708 255 125 0
0.7792897176857727 1.0584827042345708 1.6571595197214828 255 125 0
1.0584827042345708 1.6571595197214828 1.4950517651296888 255 125 0
1.6571595197214828 1.4950517651296888 1.6350894238202782 255 125 0
1.4950517651296888 1.6350894238202782 1.8068321968878995 255 125 0
1.6350894238202782 1.8068321968878995 1.705279773503371 255 125 0
1.8068321968878995 1.705279773503371 1.7737857165318065 255 125 0
1.705279773503371 1.7737857165318065 1.4860172747897515 255 125 0
1.7737857165318065 1.4860172747897515 1.0645563604530146 255 125 0
1.4860172747897515 1.0645563604530146 0.4713311614661709 255 125 0
1.0645563604530146 0.4713311614661709 -0.10104988544951896 255 125 0
0.4713311614661709 -0.10104988544951896 -0.5071684793194035 255 125 0
-0.10104988544951896 -0.5071684793194035 -0.6993353186058261 255 125 0
-0.5071684793194035 -0.6993353186058261 -0.6462494656793221 255 125 0
-0.6993353186058261 -0.6462494656793221 -0.911948202727666 255 125 0
-0.6462494656793221 -0.911948202727666 -1.0737373337871952 255 125 0
-0.911948202727666 -1.0737373337871952 -1.2938707835418497 255 125 0
-1.0737373337871952 -1.2938707835418497 -0.8391778274031297 255 125 0
-1.2938707835418497 -0.8391778274031297 -1.1938332194275134 255 125 0
-0.8391778274031297 -1.1938332194275134 -1.0270069102885022 255 125 0
-1.1938332194275134 -1.0270069102885022 -1.276421196194868 255 125 0
-1.0270069102885022 -1.276421196194868 -1.1181724606975572 255 125 0
-1.276421196194868 -1.1181724606975572 -1.1715476597904395 255 125 0
-1.1181724606975572 -1.1715476597904395 -1.2563613039625658 255 125 0
-1.1715476597904395 -1.2563613039625658 -0.3766246489099715 255 125 0
-1.2563613039625658 -0.3766246489099715 -0.7265643462097642 255 125 0
-0.3766246489099715 -0.7265643462097642 -1.0573250967355656 255 125 0
-0.7265643462097642 -1.0573250967355656 -0.9479705291004046 255 125 0
-1.0573250967355656 -0.9479705291004046 -0.40243107496637465 255 125 0
-0.9479705291004046 -0.40243107496637465 -0.375828090738692 255 125 0
-0.40243107496637465 -0.375828090738692 -0.33690966316541504 255 125 0
-0.375828090738692 -0.33690966316541504 0.8302008489110161 255 125 0
-0.33690966316541504 0.8302008489110161 0.3087371283320685 255 125 0
0.8302008489110161 0.3087371283320685 0.7834121842134223 255 125 0
0.3087371283320685 0.7834121842134223 0.6324086428642062 255 125 0
0.7834121842134223 0.6324086428642062 1.075141189060118 255 125 0
0.6324086428642062 1.075141189060118 1.107501521186811 255 125 0
1.075141189060118 1.107501521186811 1.4876862015663943 255 125 0
1.107501521186811 1.4876862015663943 1.495778463384693 255 125 0
1.4876862015663943 1.495778463384693 1.7123677921531923 255 125 0
1.495778463384693 1.7123677921531923 1.6872114195364185 255 125 0
1.7123677921531923 1.6872114195364185 1.7314035397133118 255 125 0
1.6872114195364185 1.7314035397133118 1.6523465885556885 255 125 0
1.7314035397133118 1.6523465885556885 1.4261777646728546 255 125 0
1.6523465885556885 1.4261777646728546 0.9001770207088383 255 125 0
1.4261777646728546 0.9001770207088383 0.420184081653741 255 125 0
0.9001770207088383 0.420184081653741 -0.3094046320640484 255 125 0
0.420184081653741 -0.3094046320640484 -0.015982525086823234 255 125 0
-0.3094046320640484 -0.015982525086823234 -0.2968301060418099 255 125 0
-0.015982525086823234 -0.2968301060418099 -0.8065604205981916 255 125 0
-0.2968301060418099 -0.8065604205981916 -0.9218843792556992 255 125 0
-0.8065604205981916 -0.9218843792556992 -1.2166879792378291 255 125 0
-0.9218843792556992 -1.2166879792378291 -1.3838823405377234 255 125 0
-1.2166879792378291 -1.3838823405377234 -1.5143677750178377 255 125 0
-1.3838823405377234 -1.5143677750178377 -1.3857812921601866 255 125 0
-1.5143677750178377 -1.3857812921601866 -1.3929344511182855 255 125 0
-1.3857812921601866 -1.3929344511182855 -1.4472549853124848 255 125 0
-1.3929344511182855 -1.4472549853124848 -1.465996237807962 255 125 0
-1.4472549853124848 -1.465996237807962 -1.423808941839927 255 125 0
-1.465996237807962 -1.423808941839927 -1.3151163704383335 255 125 0
-1.423808941839927 -1.3151163704383335 -1.4883107616579432 255 125 0
-1.3151163704383335 -1.4883107616579432 -1.1395981244807638 255 125 0
-1.4883107616579432 -1.1395981244807638 0.2968019076599668 255 125 0
-1.1395981244807638 0.2968019076599668 -0.015582446391282966 255 125 0
0.2968019076599668 -0.015582446391282966 0.02036142579658442 255 125 0
-0.015582446391282966 0.02036142579658442 -0.07148425252072331 255 125 0
0.02036142579658442 -0.07148425252072331 0.0019384625721136784 255 125 0
-0.07148425252072331 0.0019384625721136784 -0.6289665196621721 255 125 0
0.0019384625721136784 -0.6289665196621721 -0.8841031762950677 255 125 0
-0.6289665196621721 -0.8841031762950677 -0.6230673718607231 255 125 0
-0.8841031762950677 -0.6230673718607231 0.5056550743797016 255 125 0
-0.6230673718607231 0.5056550743797016 0.9636681289241478 255 125 0
0.5056550743797016 0.9636681289241478 1.0471866477210932 255 125 0
0.9636681289241478 1.0471866477210932 1.396040779940113 255 125 0
1.0471866477210932 1.396040779940113 1.4765531626796482 255 125 0
1.396040779940113 1.4765531626796482 1.5280226181947103 255 125 0
1.4765531626796482 1.5280226181947103 1.665804232011998 255 125 0
1.5280226181947103 1.665804232011998 1.684814514685978 255 125 0
1.665804232011998 1.684814514685978 1.6548756813668322 255 125 0
1.684814514685978 1.6548756813668322 1.4985995303529012 255 125 0
1.6548756813668322 1.4985995303529012 1.0858662934454633 255 125 0
1.4985995303529012 1.0858662934454633 0.39177655686032425 255 125 0
1.0858662934454633 0.39177655686032425 0.08008517255785016 255 125 0
0.39177655686032425 0.08008517255785016 0.00014092808347139228 255 125 0
0.08008517255785016 0.00014092808347139228 -0.4243356429830884 255 125 0
0.00014092808347139228 -0.4243356429830884 -0.7785893015599968 255 125 0
-0.4243356429830884 -0.7785893015599968 -0.8884225607885416 255 125 0
-0.7785893015599968 -0.8884225607885416 -1.0497420045013326 255 125 0
-0.8884225607885416 -1.0497420045013326 -1.1819771770873009 255 125 0
-1.0497420045013326 -1.1819771770873009 -1.2068650967530716 255 125 0
-1.1819771770873009 -1.2068650967530716 -1.1949546212740116 255 125 0
-1.2068650967530716 -1.1949546212740116 -1.2856368942170493 255 125 0
-1.1949546212740116 -1.2856368942170493 -1.0457264116467515 255 125 0
-1.2856368942170493 -1.0457264116467515 -1.165723116990376 255 125 0
-1.0457264116467515 -1.165723116990376 -1.2797855625701449 255 125 0
-1.165723116990376 -1.2797855625701449 -1.2737357674921133 255 125 0
-1.2797855625701449 -1.2737357674921133 -1.0338095369110891 255 125 0
-1.2737357674921133 -1.0338095369110891 -0.14300292585897087 255 125 0
-1.0338095369110891 -0.14300292585897087 -0.026785746344381568 255 125 0
-0.14300292585897087 -0.026785746344381568 -0.13515130115606713 255 125 0
-0.026785746344381568 -0.13515130115606713 0.2211791942097596 255 125 0
-0.13515130115606713 0.2211791942097596 0.476299766387841 255 125 0
0.2211791942097596 0.476299766387841 0.2017503467990862 255 125 0
0.476299766387841 0.2017503467990862 -0.06941151305073091 255 125 0
0.2017503467990862 -0.06941151305073091 0.14475143830235254 255 125 0
-0.06941151305073091 0.14475143830235254 0.6404110470590753 255 125 0
0.14475143830235254 0.6404110470590753 0.6662999681864901 255 125 0
0.6404110470590753 0.6662999681864901 1.1258321190933716 255 125 0
0.6662999681864901 1.1258321190933716 1.2921918267384498 255 125 0
1.1258321190933716 1.2921918267384498 1.5472504966627445 255 125 0
1.2921918267384498 1.5472504966627445 1.5696827261810309 255 125 0
1.5472504966627445 1.5696827261810309 1.6004191725212205 255 125 0
1.5696827261810309 1.6004191725212205 1.6537923958468526 255 125 0
1.6004191725212205 1.6537923958468526 1.7963874026688451 255 125 0
1.6537923958468526 1.7963874026688451 1.6205368847485617 255 125 0
1.7963874026688451 1.6205368847485617 1.2161270673135478 255 125 0
1.6205368847485617 1.2161270673135478 1.219638790483779 255 125 0
1.2161270673135478 1.219638790483779 1.1364583734020586 255 125 0
1.219638790483779 1.1364583734020586 0.4009858809666265 255 125 0
1.1364583734020586 0.4009858809666265 -0.06631651054910488 255 125 0
0.4009858809666265 -0.06631651054910488 -0.09381220532097953 255 125 0
-0.06631651054910488 -0.09381220532097953 -0.30162724429553284 255 125 0
-0.09381220532097953 -0.30162724429553284 -0.7532916273007496 255 125 0
-0.30162724429553284 -0.7532916273007496 -1.0461296196741254 255 125 0
-0.7532916273007496 -1.0461296196741254 -1.2263571933113415 255 125 0
-1.0461296196741254 -1.2263571933113415 -1.3101754104015542 255 125 0
-1.2263571933113415 -1.3101754104015542 -1.3810198561316291 255 125 0
-1.3101754104015542 -1.3810198561316291 -1.2246908007840245 255 125 0
-1.3810198561316291 -1.2246908007840245 -1.0382395788466268 255 125 0
-1.2246908007840245 -1.0382395788466268 -0.6555636825312754 255 125 0
-1.0382395788466268 -0.6555636825312754 -0.8047123318676912 255 125 0
-0.6555636825312754 -0.8047123318676912 -0.9943898393630368 255 125 0
-0.8047123318676912 -0.9943898393630368 -0.26724562305751104 255 125 0
-0.9943898393630368 -0.26724562305751104 -0.3574332186143426 255 125 0
-0.26724562305751104 -0.3574332186143426 0.06192948628759842 255 125 0
-0.3574332186143426 0.06192948628759842 -0.3127545374241416 255 125 0
0.06192948628759842 -0.3127545374241416 -0.29200612123532466 255 125 0
-0.3127545374241416 -0.29200612123532466 0.3137526417899685 255 125 0
-0.29200612123532466 0.3137526417899685 0.3176371770161933 255 125 0
0.3137526417899685 0.3176371770161933 0.508145999004634 255 125 0
0.3176371770161933 0.508145999004634 -0.1978128686361192 255 125 0
0.508145999004634 -0.1978128686361192 -0.010992591376794055 255 125 0
-0.1978128686361192 -0.010992591376794055 0.14168954808172876 255 125 0
-0.010992591376794055 0.14168954808172876 0.07848648208179271 255 125 0
0.14168954808172876 0.07848648208179271 0.5644351845727256 255 125 0
0.07848648208179271 0.5644351845727256 1.0003909779156956 255 125 0
0.5644351845727256 1.0003909779156956 1.0509855388772105 255 125 0
1.0003909779156956 1.0509855388772105 1.1323948863209776 255 125 0
1.0509855388772105 1.1323948863209776 1.3662869128846702 255 125 0
1.1323948863209776 1.3662869128846702 1.4388833105602234 255 125 0
1.3662869128846702 1.4388833105602234 1.37359779715625 255 125 0
1.4388833105602234 1.37359779715625 1.156314235393597 255 125 0
1.37359779715625 1.156314235393597 1.164471425854689 255 125 0
1.156314235393597 1.164471425854689 0.8660817491326744 255 125 0
1.164471425854689 0.8660817491326744 0.3103096003814879 255 125 0
0.8660817491326744 0.3103096003814879 -0.2881576430132193 255 125 0
0.3103096003814879 -0.2881576430132193 -0.6643484685367089 255 125 0
-0.2881576430132193 -0.6643484685367089 -0.6718874050851464 255 125 0
-0.6643484685367089 -0.6718874050851464 -0.8530910426105424 255 125 0
-0.6718874050851464 -0.8530910426105424 -1.1037779560234158 255 125 0
-0.8530910426105424 -1.1037779560234158 -1.186014073282615 255 125 0
-1.1037779560234158 -1.186014073282615 -1.1337018134595416 255 125 0
-1.186014073282615 -1.1337018134595416 -1.2680065740540571 255 125 0
-1.1337018134595416 -1.2680065740540571 -1.211982248533663 255 125 0
-1.2680065740540571 -1.211982248533663 -1.2799976265137256 255 125 0
-1.211982248533663 -1.2799976265137256 -0.9036627444362266 255 125 0
-1.2799976265137256 -0.9036627444362266 -0.7215651837911509 255 125 0
-0.9036627444362266 -0.7215651837911509 -1.3399597111523311 255 125 0
-0.7215651837911509 -1.3399597111523311 -1.2234408223104691 255 125 0
-1.3399597111523311 -1.2234408223104691 -0.18711600551609986 255 125 0
-1.2234408223104691 -0.18711600551609986 -0.8173792267526538 255 125 0
-0.18711600551609986 -0.8173792267526538 -0.4168748229925847 255 125 0
-0.8173792267526538 -0.4168748229925847 -0.36422947977106107 255 125 0
-0.4168748229925847 -0.36422947977106107 0.18504503350591928 255 125 0
-0.36422947977106107 0.18504503350591928 0.28151437726689604 255 125 0
0.18504503350591928 0.28151437726689604 -0.11515403712756375 255 125 0
0.28151437726689604 -0.11515403712756375 0.1803954895948702 255 125 0
-0.11515403712756375 0.1803954895948702 -0.04752647715801635 255 125 0
0.1803954895948702 -0.04752647715801635 0.27937684191535445 255 125 0
-0.04752647715801635 0.27937684191535445 0.41349266125067535 255 125 0
0.27937684191535445 0.41349266125067535 0.5314255617068936 255 125 0
0.41349266125067535 0.5314255617068936 0.6369309951878152 255 125 0
0.5314255617068936 0.6369309951878152 1.0890964287337943 255 125 0
0.6369309951878152 1.0890964287337943 1.1288327911409206 255 125 0
1.0890964287337943 1.1288327911409206 1.1787335343980423 255 125 0
1.1288327911409206 1.1787335343980423 0.8747628658724294 255 125 0
1.1787335343980423 0.8747628658724294 0.8676083919169683 255 125 0
0.8747628658724294 0.8676083919169683 0.4784365662247094 255 125 0
0.8676083919169683 0.4784365662247094 0.16766081692412668 255 125 0
0.4784365662247094 0.16766081692412668 -0.20554906695004366 255 125 0
0.16766081692412668 -0.20554906695004366 -0.4813928914723663 255 125 0
-0.20554906695004366 -0.4813928914723663 -0.6654318826130337 255 125 0
-0.4813928914723663 -0.6654318826130337 -0.7310185674348151 255 125 0
-0.6654318826130337 -0.7310185674348151 -1.0584184765383533 255 125 0
-0.7310185674348151 -1.0584184765383533 -1.1967774846658106 255 125 0
-1.0584184765383533 -1.1967774846658106 -1.332836371040113 255 125 0
-1.1967774846658106 -1.332836371040113 -1.357714711280625 255 125 0
-1.332836371040113 -1.357714711280625 -1.3164360983268133 255 125 0
-1.357714711280625 -1.3164360983268133 -1.3270217527974555 255 125 0
-1.3164360983268133 -1.3270217527974555 -1.0670058638941555 255 125 0
-1.3270217527974555 -1.0670058638941555 -0.9381889934143932 255 125 0
-1.0670058638941555 -0.9381889934143932 -1.1657990268819407 255 125 0
-0.9381889934143932 -1.1657990268819407 -0.8952299265474719 255 125 0
-1.1657990268819407 -0.8952299265474719 -0.5906124270229864 255 125 0
-0.8952299265474719 -0.5906124270229864 -0.673196500604679 255 125 0
-0.5906124270229864 -0.673196500604679 -0.9901666644560284 255 125 0
-0.673196500604679 -0.9901666644560284 -0.5666079757331098 255 125 0
-0.9901666644560284 -0.5666079757331098 -0.007218645866889702 255 125 0
-0.5666079757331098 -0.007218645866889702 0.28485202942397725 255 125 0
-0.007218645866889702 0.28485202942397725 1.192335249571596 255 125 0
0.28485202942397725 1.192335249571596 1.2208496628930858 255 125 0
1.192335249571596 1.2208496628930858 0.4842591825385786 255 125 0
1.2208496628930858 0.4842591825385786 0.2101692613767929 255 125 0
0.4842591825385786 0.2101692613767929 0.23928425993834496 255 125 0
0.2101692613767929 0.23928425993834496 0.8315334835759063 255 125 0
0.23928425993834496 0.8315334835759063 1.2578337477959494 255 125 0
0.8315334835759063 1.2578337477959494 1.348048956760304 255 125 0
1.2578337477959494 1.348048956760304 1.4799388495059247 255 125 0
1.348048956760304 1.4799388495059247 1.5806937511007129 255 125 0
1.4799388495059247 1.5806937511007129 1.3947871180996023 255 125 0
1.5806937511007129 1.3947871180996023 1.3988504755743143 255 125 0
1.3947871180996023 1.3988504755743143 1.1009235406110651 255 125 0
1.3988504755743143 1.1009235406110651 1.0727829089262817 255 125 0
1.1009235406110651 1.0727829089262817 1.1500051259079669 255 125 0
1.0727829089262817 1.1500051259079669 0.8834891296582793 255 125 0
1.1500051259079669 0.8834891296582793 0.34423676714478074 255 125 0
0.8834891296582793 0.34423676714478074 0.3118106936104146 255 125 0
0.34423676714478074 0.3118106936104146 -0.3053041567508232 255 125 0
0.3118106936104146 -0.3053041567508232 -0.60789307328937 255 125 0
-0.3053041567508232 -0.60789307328937 -0.6899930809535021 255 125 0
-0.60789307328937 -0.6899930809535021 -0.820439471404143 255 125 0
-0.6899930809535021 -0.820439471404143 -1.1351269190707476 255 125 0
-0.820439471404143 -1.1351269190707476 -1.2381042602062988 255 125 0
3 197 205 206
3 349 205 206
3 349 61 205
3 62 169 206
3 62 349 206
3 125 197 205
3 125 197 204
3 342 197 204
3 168 61 205
3 168 98 205
3 168 211 61
3 227 97 169
3 130 97 169
3 130 342 204
3 57 228 97
3 100 349 61
3 100 62 349
3 126 197 206
3 126 342 197
3 126 169 206
3 126 130 169
3 126 130 342
3 170 168 98
3 289 100 62
3 319 62 169
3 319 227 169
3 319 289 62
3 319 289 227
3 454 130 97
3 499 228 98
3 188 227 186
3 52 57 97
3 52 124 204
3 52 57 98
3 82 228 98
3 82 57 98
3 82 57 228
3 196 125 204
3 196 124 204
3 196 125 205
3 196 124 205
3 21 124 205
3 208 168 211
3 208 170 211
3 208 170 168
3 347 130 204
3 347 454 204
3 347 454 130
3 403 170 98
3 403 499 98
3 81 227 97
3 81 188 227
3 81 228 97
3 20 454 204
3 20 52 204
3 20 454 97
3 20 52 97
3 455 52 98
3 455 52 124
3 455 21 124
3 455 98 205
3 455 21 205
3 288 211 61
3 288 100 61
3 402 188 186
3 402 295 186
3 368 295 228
3 368 81 228
3 368 81 188
3 368 402 188
3 368 402 295
3 71 170 211
3 71 403 211
3 71 403 170
3 189 295 228
3 189 499 228
3 401 185 186
3 293 185 186
3 181 289 100
3 181 288 100
3 294 401 186
3 294 227 186
3 294 289 227
3 182 294 289
3 182 294 401
3 187 295 186
3 187 293 186
3 187 293 403
3 187 189 295
3 187 403 499
3 187 189 499
3 183 403 211
3 183 293 403
3 183 288 211
3 184 293 185
3 184 182 185
3 184 183 293
3 184 181 289
3 184 182 289
3 292 401 185
3 292 182 185
3 292 182 401
3 291 181 288
3 291 184 181
3 400 184 183
3 400 291 184
3 400 183 288
3 400 291 288
